<svg width="600" height="241" viewBox="0 0 600 241" fill="none" xmlns="http://www.w3.org/2000/svg">
<g clip-path="url(#clip0_2065_246)">
<path d="M695.445 -7.2652L793.165 -47.3607L680.484 60.9078L642.453 182.456L621.956 127.277L655.965 76.552L611.154 15.7681L695.445 -7.2652Z" fill="#7A0000"/>
<path d="M814.099 -44.6895L853.3 40.4075L813.979 122.994L741.405 142.518L654.763 184.026L690.624 69.7098L814.099 -44.6895Z" fill="#7A0000"/>
<path d="M457.339 24.5284L520.494 6.23573L559.567 8.19786L592.589 74.3517L505.052 66.5504L463.605 105.54L407.622 39.7812L457.339 24.5284Z" fill="#7A0000"/>
<path d="M462.509 115.391L503.818 77.6332L597 83.7573L569.378 126.02L586.175 181.041L518.995 137.422L417 164.5L451.246 108.737L462.509 115.391Z" fill="#7A0000"/>
<path d="M278.019 47.1008L348.194 34.382L399.03 38.5242L448.98 99.6454L371.271 82.0191L298.5 153L321.576 91.4481L278.019 47.1008Z" fill="#7A0000"/>
<path d="M376.587 93.0917L441.92 107.373L407.622 160.805L350.413 161.565L321.576 146.083L376.587 93.0917Z" fill="#7A0000"/>
<path d="M517.899 147.273L577.174 183.478L551.514 188.485L517.899 188.25L430.959 173.349L517.899 147.273Z" fill="#7A0000"/>
<path d="M273 54.9999L307 91.448L274.681 116.76L219.083 120.929L222.538 93.8411L196.232 84.2227L211.789 70.2202L273 54.9999Z" fill="#7A0000"/>
<path d="M90.5427 143.323L129.081 125.714L126.881 142.954L146.559 155.476L127.276 169.285L92.0381 161.035L90.5427 143.323Z" fill="#7A0000"/>
<path d="M213.997 97.7526L211.168 119.92L194.793 140.355L178.156 143.239L184.993 119.082L168.538 110.725L188.763 89.5316L213.997 97.7526Z" fill="#7A0000"/>
<path d="M138.015 124.351L161.909 113.635L180.984 121.073L171.685 144.916L153.347 151.337L133.51 140.045L138.015 124.351Z" fill="#7A0000"/>
<path d="M136.937 64.1423L164.031 67.5992L161.465 107.32L135.424 115.26L121.903 103.524L124.103 86.2828L115.059 68.8596L136.937 64.1423Z" fill="#7A0000"/>
<path d="M85.6628 63.8572L108.903 68.0742L117.943 85.4969L115.901 101.506L82.049 92.1804L58.8364 77.9554L61.0339 60.7149L85.6628 63.8572Z" fill="#7A0000"/>
<path d="M189.626 53.3443L219.208 47.1068L262.622 50.1446L213.469 62.6439L194.345 75.2216L168.251 103.179L167.88 66.8389L189.626 53.3443Z" fill="#7A0000"/>
<path d="M74.346 93.7004L44.1632 94.8553L11.9888 92.0014L2.47812 78.2732L54.5626 62.392L52.2058 80.8635L74.346 93.7004Z" fill="#7A0000"/>
<path d="M163.515 208.95L178.476 199.596L188.615 208.399L192.806 195.167L197.442 188.25L177.137 180.653L166.029 189.248L163.515 208.95Z" fill="#7A0000"/>
<path d="M165.505 212.959L163.462 228.968L173.603 237.771L185.63 231.796L187.672 215.788L177.533 206.985L165.505 212.959Z" fill="#7A0000"/>
<path d="M121.771 202.623L118 232.178L123.529 237.889L135.556 231.915L138.383 209.749L147.531 196.899L131.573 174.84L121.771 202.623Z" fill="#7A0000"/>
<path d="M147.13 160.805L133.433 170.071L151.696 193.677L158.193 181.991L173.467 170.173L163.353 151.362L147.13 160.805Z" fill="#7A0000"/>
<path d="M96.5978 184.144L109.802 198.343L117.532 186.815L125.26 175.286L101.056 169.913L96.5978 184.144Z" fill="#7A0000"/>
<path d="M121.067 188.517L115.198 195.278L111.478 204.815L94.7351 188.912L93.3704 229.035L104.777 237.75L110.61 231.235L112.213 218.675L121.067 188.517Z" fill="#7A0000"/>
<path d="M278.625 123L303 106L290.836 152.609L278.625 161.064L243.659 179.13L220.13 167.367L227.464 129.507L278.625 123Z" fill="#7A0000"/>
<path d="M201.767 148.755L218.138 128.317L212.639 171.417L237.345 179.575L202.997 183.953L178.235 172.033L170.583 153.536L201.767 148.755Z" fill="#7A0000"/>
</g>
<defs>
<clipPath id="clip0_2065_246">
<rect width="600" height="241" fill="white"/>
</clipPath>
</defs>
</svg>
