<svg width="608" height="334" viewBox="0 0 608 334" fill="none" xmlns="http://www.w3.org/2000/svg">
<g clip-path="url(#clip0_2065_244)">
<path d="M-222.355 220.722L-184.79 281.448L-199.872 357.254L-274.307 392.531L-300.912 333.189L-346.49 298.7L-294.412 204.078L-222.355 220.722Z" fill="#7A0000"/>
<path d="M-39.3821 124.151L-54.4369 173.068L-21.4783 247.954L-25.8687 326.825L-96.9038 269.092L-180.512 359.544L-170.09 279.88L-208.653 209.798L-140.286 153.841L-39.3821 124.151Z" fill="#7A0000"/>
<path d="M-37.9435 327.662L-78.4148 328.375L-103.017 351.144L-147.727 362.805L-161.817 357.417L-97.6386 287.17L-37.9435 327.662Z" fill="#7A0000"/>
<path d="M340.02 6.55021L382.43 11.3376L447.019 8.65226L403.151 28.2018L356.379 33.1919L302.39 59.2281L297.028 97.6495L259.166 135.483L251.608 64.646L229.815 25.0666L260.319 6.94285L340.02 6.55021Z" fill="#7A0000"/>
<path d="M305.955 92.6419L308.449 65.3407L344.156 45.31L376.318 55.3963L328.958 92.8912L337.584 123.061L317.021 107.682L305.955 92.6419Z" fill="#7A0000"/>
<path d="M442.248 115.95L479.56 128.19L499.161 159.893L498.68 176.166L484.836 177.643L449.626 159.771L404.777 132.114L442.248 115.95Z" fill="#7A0000"/>
<path d="M352.996 128.176L341.699 98.2907L387.437 58.2653L416.535 90.3066L436.475 112.511L395.137 130.439L378.387 125.467L352.996 128.176Z" fill="#7A0000"/>
<path d="M548.104 96.0331L532.638 80.8513L533.644 49.836L548.744 63.7244L567.725 76.5156L602.706 111.321L585.894 116.076L572.426 112.901L556.595 96.4255L548.104 96.0331Z" fill="#7A0000"/>
<path d="M451.868 54.0948L463.61 50.1385L469.061 25.2253L482.372 35.971L498.8 37.9326L526.989 48.7837L528.505 75.6572L512.183 74.695L460.973 76.1032L451.868 54.0948Z" fill="#7A0000"/>
<path d="M360.958 38.1104L412.934 31.2134L451.599 13.5707L461.952 21.9285L454.878 44.3113L439.412 51.3683L449.712 71.8976L418.638 84.6752L389.218 49.6237L360.958 38.1104Z" fill="#7A0000"/>
<path d="M105.41 100.52L84.4763 170.341L142.637 208.744L140.188 249.131L36.7922 325.474L41.2519 246.596L7.59048 171.785L37.9686 114.474L105.41 100.52Z" fill="#7A0000"/>
<path d="M511.311 104.527L540.711 101.39L549.104 116.716L556.161 132.184L562.451 153.141L570.078 173.955L560.724 174.953L552.135 170.463L545.221 156.331L540.695 139.241L529.486 122.864L511.311 104.527Z" fill="#7A0000"/>
<path d="M481.911 107.663L463.398 98.8245L442.55 80.7723L458.728 80.398L474.569 81.4115L492.954 97.158L528.293 124.343L497.894 118.124L481.911 107.663Z" fill="#7A0000"/>
<path d="M545.881 175.185L535.403 177.655L528.21 174.244L522.497 163.364L520.87 148.115L532.872 129.262L536.828 141.005L541.427 159.439L545.881 175.185Z" fill="#7A0000"/>
<path d="M509.547 100.66L478.931 79.7296L492.295 78.3038L523.73 81.5737L537.611 97.6656L509.547 100.66Z" fill="#7A0000"/>
<path d="M517.941 144.778L504.281 135.421L497.859 121.237L515.802 124.729L530.93 127.171L517.941 144.778Z" fill="#7A0000"/>
<path d="M478.419 125.609L455.754 115.861L436.955 104.349L427.083 87.8294L438.683 82.5366L460.882 100.58L479.809 113.295L478.419 125.609Z" fill="#7A0000"/>
<path d="M468.657 186.128L459.302 187.126L449.858 174.616L452.727 163.496L468.425 171.283L468.657 186.128Z" fill="#7A0000"/>
<path d="M151.753 237.51L223.781 183.866L250.239 140.491L246 73.6282L165.722 209.754L151.753 237.51Z" fill="#7A0000"/>
<path d="M167.417 73.6282L221.458 35.4204L242.253 65.644L155.593 203.5L96.0756 165.048L115.531 94.0332L167.417 73.6282Z" fill="#7A0000"/>
</g>
<defs>
<clipPath id="clip0_2065_244">
<rect width="608" height="334" fill="white"/>
</clipPath>
</defs>
</svg>
